<svg width="31" height="29" viewBox="0 0 31 29" fill="none" xmlns="http://www.w3.org/2000/svg">
<path d="M1.60612 2.20121L5.09016 5.17871C5.34961 5.38874 5.60906 5.537 5.88087 5.537C6.15267 5.537 6.41212 5.38874 6.67157 5.17871L10.1556 2.20121C11.2552 1.28696 9.95794 -0.430348 8.7101 0.681579L5.88087 3.25137L3.05163 0.681579C1.80379 -0.430348 0.506545 1.28696 1.60612 2.20121ZM4.05236 28.3192H26.4762C29.1449 28.3192 30.5286 26.9354 30.5286 24.3039V11.3437C30.5286 8.71217 29.1449 7.32843 26.4762 7.32843H23.091C22.1274 7.32843 21.8185 7.16782 21.2255 6.53773L20.2371 5.47522C19.5946 4.80807 18.9522 4.46213 17.692 4.46213H12.7748C11.5146 4.46213 10.8722 4.80807 10.2297 5.47522L9.24136 6.53773C8.66069 7.15547 8.33946 7.32843 7.37579 7.32843H4.05236C1.38373 7.32843 0 8.71217 0 11.3437V24.3039C0 26.9354 1.38373 28.3192 4.05236 28.3192ZM4.20062 25.8976C3.06398 25.8976 2.42153 25.2922 2.42153 24.0938V11.5538C2.42153 10.3553 3.06398 9.74996 4.20062 9.74996H8.08001C9.17959 9.74996 9.76026 9.56464 10.378 8.87278L11.3293 7.83498C12.0212 7.08134 12.3918 6.88366 13.479 6.88366H16.9878C18.075 6.88366 18.4457 7.08134 19.1375 7.82262L20.0888 8.87278C20.7066 9.55229 21.2872 9.74996 22.3868 9.74996H26.3403C27.477 9.74996 28.1071 10.3553 28.1071 11.5538V24.0938C28.1071 25.2922 27.477 25.8976 26.3403 25.8976H4.20062ZM15.2705 24.2544C18.9646 24.2544 21.9421 21.2893 21.9421 17.5705C21.9421 13.8517 18.9769 10.8742 15.2705 10.8742C11.5641 10.8742 8.59891 13.8517 8.59891 17.5705C8.59891 21.2893 11.5641 24.2544 15.2705 24.2544ZM22.3621 13.1228C22.3621 14.0247 23.091 14.7289 23.9682 14.7166C24.8331 14.7166 25.562 14.0124 25.562 13.1228C25.562 12.2703 24.8331 11.529 23.9682 11.529C23.091 11.529 22.3621 12.2703 22.3621 13.1228ZM15.2705 22.0429C12.7995 22.0429 10.7981 20.0538 10.7981 17.5705C10.7981 15.0749 12.7995 13.0857 15.2705 13.0857C17.7414 13.0857 19.7429 15.0749 19.7429 17.5705C19.7429 20.0538 17.7414 22.0429 15.2705 22.0429Z" fill="#7D8491"/>
</svg>
