<svg width="36" height="25" viewBox="0 0 36 25" fill="none" xmlns="http://www.w3.org/2000/svg">
<path d="M7.61172 17.7729H8.30598C8.74205 17.7729 9.08058 17.4344 9.08058 16.9983V16.063C10.3429 16.1376 12.0642 16.1835 13.4757 16.1835C14.8814 16.1835 16.6028 16.1376 17.8651 16.063V16.9983C17.8651 17.4344 18.2036 17.7729 18.6454 17.7729H19.3339C19.7757 17.7729 20.1143 17.4344 20.1143 16.9983V15.4893C20.3036 15.2655 20.4069 14.9671 20.4069 14.5999V13.5901C20.4069 12.5802 20.229 12.0122 19.6839 11.3237L19.1733 10.681C18.961 9.64823 18.5823 8.5638 18.3815 8.1392C18.0602 7.46215 17.4405 7.06051 16.6487 6.95149C16.2298 6.89411 15.0019 6.86542 13.4757 6.86542C11.9495 6.86542 10.7158 6.89985 10.3027 6.95149C9.51091 7.04903 8.8855 7.46215 8.56992 8.1392C8.3691 8.5638 7.99041 9.64823 7.77811 10.681L7.26745 11.3237C6.72236 12.0122 6.54449 12.5802 6.54449 13.5901V14.5999C6.54449 14.9671 6.64777 15.2655 6.83712 15.4893V16.9983C6.83712 17.4344 7.17565 17.7729 7.61172 17.7729ZM13.4757 15.254C11.5076 15.254 9.06337 15.1622 8.13385 15.0532C7.6404 14.9958 7.4568 14.7434 7.4568 14.3073V13.5384C7.4568 12.7638 7.60598 12.3966 8.00762 11.863L8.6273 11.054C8.77074 10.2851 9.14369 9.09167 9.37894 8.58101C9.57403 8.17363 9.94124 7.93838 10.4404 7.87527C10.8363 7.82363 11.9552 7.77773 13.4757 7.77773C14.9962 7.77773 16.1323 7.82936 16.4995 7.87527C17.0159 7.93838 17.3716 8.17937 17.5667 8.58675C17.8134 9.08593 18.1749 10.2736 18.3184 11.054L18.938 11.863C19.3454 12.3966 19.4889 12.7638 19.4889 13.5384V14.3073C19.4889 14.7434 19.3052 14.9958 18.8175 15.0532C17.888 15.1622 15.4437 15.254 13.4757 15.254ZM9.40763 10.4802C9.35025 10.7155 9.45353 10.8245 9.70026 10.813C10.5437 10.7614 11.6052 10.7097 13.4757 10.7097C15.3462 10.7097 16.4077 10.7614 17.2454 10.813C17.4979 10.8245 17.5954 10.7155 17.5438 10.4802C17.4175 9.92938 17.1823 9.20642 17.0159 8.91954C16.8552 8.63265 16.6716 8.51216 16.3331 8.46626C15.9429 8.41462 15.0077 8.37445 13.4757 8.37445C11.9437 8.37445 11.0027 8.41462 10.6183 8.46626C10.2798 8.51216 10.0904 8.63265 9.9355 8.91954C9.76911 9.20642 9.53386 9.92938 9.40763 10.4802ZM9.32156 14.5138C9.87239 14.5138 10.2855 14.1007 10.2855 13.5556C10.2855 13.0048 9.87239 12.5917 9.32156 12.5917C8.77648 12.5917 8.36336 13.0048 8.36336 13.5556C8.36336 14.1007 8.77648 14.5138 9.32156 14.5138ZM17.6241 14.5138C18.1749 14.5138 18.588 14.1007 18.588 13.5556C18.588 13.0048 18.1749 12.5917 17.6241 12.5917C17.079 12.5917 16.6659 13.0048 16.6659 13.5556C16.6659 14.1007 17.079 14.5138 17.6241 14.5138ZM11.9265 14.2729H15.0249C15.4323 14.2729 15.7192 13.986 15.7192 13.5786C15.7192 13.1712 15.4323 12.8843 15.0249 12.8843H11.9265C11.5134 12.8843 11.2265 13.1712 11.2265 13.5786C11.2265 13.986 11.5134 14.2729 11.9265 14.2729Z" fill="#7D8491"/>
<path d="M5.80905 24.3174H20.7261C24.4124 24.3174 26.5495 22.2376 26.5495 18.6231V16.9019L31.6988 21.2622C32.3729 21.836 33.0757 22.2232 33.7642 22.2232C35.0695 22.2232 35.9731 21.2766 35.9731 19.8566V4.86778C35.9731 3.44779 35.0695 2.50113 33.7642 2.50113C33.0757 2.50113 32.3729 2.8884 31.6988 3.44779L26.5495 7.82251V6.0296C26.5495 2.41507 24.4124 0.320944 20.7261 0.320944H5.80905C2.2519 0.320944 0 2.41507 0 6.0296V18.7235C0 22.3236 2.12281 24.3174 5.80905 24.3174ZM6.28238 22.5007C4.04482 22.5007 2.21437 20.1645 2.21437 17.8408V6.59C2.21437 4.22334 4.04482 2.50113 6.28238 2.50113H20.2528C22.4904 2.50113 24.7161 4.10759 24.7161 6.44555V17.8408C24.7161 20.1645 22.476 22.5007 20.2528 22.5007H6.28238ZM32.7745 18.9099L26.5495 15.3344V9.50455L32.7745 5.81445C32.9036 5.71404 32.9897 5.65667 33.1044 5.65667C33.2622 5.65667 34.4668 5.82879 34.4668 6.0296V18.9099C34.4668 19.0964 33.2622 19.0677 33.1044 19.0677C32.9897 19.0677 32.9036 18.996 32.7745 18.9099Z" fill="#7D8491"/>
</svg>
