<svg width="29" height="29" viewBox="0 0 29 29" fill="none" xmlns="http://www.w3.org/2000/svg">
<path d="M14 28.3192C21.677 28.3192 28.0135 21.9826 28.0135 14.3192C28.0135 6.65571 21.6634 0.319153 13.9865 0.319153C6.32302 0.319153 0 6.65571 0 14.3192C0 21.9826 6.33656 28.3192 14 28.3192ZM14 25.53C7.7853 25.53 2.81625 20.5339 2.81625 14.3192C2.81625 8.10445 7.7853 3.12186 13.9865 3.12186C20.2012 3.12186 25.1973 8.10445 25.2108 14.3192C25.2244 20.5339 20.2147 25.53 14 25.53ZM14.0135 19.6267C16.9516 19.6267 19.3211 17.2573 19.3211 14.3056C19.3211 11.381 16.9516 8.99807 14.0135 8.99807C11.0619 8.99807 8.69245 11.381 8.69245 14.3056C8.69245 17.2573 11.0619 19.6267 14.0135 19.6267Z" fill="#7D8491"/>
</svg>
