<svg width="30" height="31" viewBox="0 0 30 31" fill="none" xmlns="http://www.w3.org/2000/svg">
<path fill-rule="evenodd" clip-rule="evenodd" d="M28.995 15.3166V4.81852C28.995 2.88587 27.4282 1.31915 25.4956 1.31915H14.9975C13.0648 1.31915 11.4981 2.88587 11.4981 4.81852V15.3166C11.4981 17.2493 13.0648 18.816 14.9975 18.816H25.4956C27.4282 18.816 28.995 17.2493 28.995 15.3166Z" stroke="#7D8491" stroke-width="1.6" stroke-linecap="round" stroke-linejoin="round"/>
<path d="M7.99877 11.8233H4.49937C2.56672 11.8233 1 13.39 1 15.3227V25.8198C1 27.7524 2.56672 29.3192 4.49937 29.3192H4.50542L15.0036 29.301C16.9338 29.2977 18.4969 27.7319 18.4969 25.8017V22.3154" stroke="#7D8491" stroke-width="1.6" stroke-linecap="round" stroke-linejoin="round"/>
<path d="M9.74844 18.8213H4.49939" stroke="#7D8491" stroke-width="1.6" stroke-linecap="round" stroke-linejoin="round"/>
<path d="M12.3737 21.4405C11.7904 22.0238 11.2072 22.607 10.624 23.1902C10.0407 23.7734 8.58267 24.6483 6.24976 25.8147" stroke="#7D8491" stroke-width="1.6" stroke-linecap="round" stroke-linejoin="round"/>
<path d="M6.24976 18.8215C6.83298 20.8619 7.70783 22.3191 8.87428 23.193C10.0407 24.0669 11.4988 24.9408 13.2485 25.8147" stroke="#7D8491" stroke-width="1.6" stroke-linecap="round" stroke-linejoin="round"/>
<path d="M20.2466 4.81852L14.9975 15.3166" stroke="#7D8491" stroke-width="1.6" stroke-linecap="round" stroke-linejoin="round"/>
<path d="M20.2466 4.81852L25.4956 15.3166" stroke="#7D8491" stroke-width="1.6" stroke-linecap="round" stroke-linejoin="round"/>
<path d="M23.746 11.8173H16.7472" stroke="#7D8491" stroke-width="1.6" stroke-linecap="round" stroke-linejoin="round"/>
</svg>
